<svg width="434" height="190" viewBox="0 0 434 190" fill="none" xmlns="http://www.w3.org/2000/svg">
<path d="M2.85689 51.8016C2.85689 51.485 3.06444 51.2901 3.47954 51.2171L6.73933 50.7056C7.20327 50.6082 7.54512 50.4621 7.76488 50.2673C7.98464 50.0724 8.09452 49.8045 8.09452 49.4636V4.16459C8.09452 3.77492 7.98464 3.48267 7.76488 3.28783C7.54512 3.093 7.20327 2.94687 6.73933 2.84945L3.47954 2.33801C3.06444 2.2406 2.85689 2.03359 2.85689 1.71698C2.85689 1.5465 2.91793 1.42473 3.04002 1.35167C3.16211 1.25425 3.34525 1.20554 3.58943 1.20554H20.2546C24.7231 1.20554 28.7764 1.8631 32.4147 3.17824C36.0774 4.46901 39.2273 6.33212 41.8644 8.76754C44.5016 11.203 46.5282 14.1255 47.9445 17.5351C49.3851 20.9203 50.1054 24.7074 50.1054 28.8964C50.1054 33.6698 49.0311 37.8222 46.8823 41.3536C44.7335 44.8606 41.7301 47.5761 37.8721 49.5001C34.0141 51.3997 29.4846 52.3495 24.2836 52.3495H3.58943C3.34525 52.3495 3.16211 52.3008 3.04002 52.2034C2.91793 52.106 2.85689 51.9721 2.85689 51.8016ZM24.1004 51.0709C27.5922 51.0709 30.6688 50.2307 33.3304 48.5503C35.9919 46.8698 38.0797 44.337 39.5936 40.9517C41.1075 37.5665 41.8644 33.2923 41.8644 28.1292C41.8644 24.1107 41.3761 20.5185 40.3994 17.3524C39.4226 14.1864 37.982 11.5074 36.0774 9.31552C34.1972 7.09928 31.9019 5.40665 29.1916 4.23765C26.4812 3.06864 23.4045 2.48414 19.9616 2.48414H15.9327V49.2444C15.9327 49.8532 16.1036 50.316 16.4454 50.6326C16.8117 50.9248 17.3245 51.0709 17.9838 51.0709H24.1004Z" fill="black"/>
<path d="M68.8698 49.4636C68.8698 49.8045 68.9919 50.0846 69.2361 50.3038C69.4803 50.4986 69.8343 50.6326 70.2983 50.7056L73.4115 51.2171C73.8511 51.3145 74.0708 51.5093 74.0708 51.8016C74.0708 51.9721 74.0098 52.106 73.8877 52.2034C73.79 52.3008 73.6069 52.3495 73.3383 52.3495H56.5266C56.2824 52.3495 56.0993 52.3008 55.9772 52.2034C55.8551 52.106 55.794 51.9721 55.794 51.8016C55.794 51.5093 56.0138 51.3145 56.4533 51.2171L59.5666 50.7056C60.055 50.6326 60.409 50.4986 60.6288 50.3038C60.873 50.0846 60.9951 49.8045 60.9951 49.4636V4.09152C60.9951 3.75056 60.873 3.48267 60.6288 3.28783C60.409 3.06864 60.055 2.92251 59.5666 2.84945L56.4533 2.33801C56.0138 2.26495 55.794 2.07011 55.794 1.75351C55.794 1.58303 55.8551 1.44908 55.9772 1.35167C56.0993 1.25425 56.2824 1.20554 56.5266 1.20554H73.3383C73.6069 1.20554 73.79 1.25425 73.8877 1.35167C74.0098 1.44908 74.0708 1.58303 74.0708 1.75351C74.0708 2.07011 73.8511 2.26495 73.4115 2.33801L70.2983 2.84945C69.8343 2.92251 69.4803 3.06864 69.2361 3.28783C68.9919 3.48267 68.8698 3.75056 68.8698 4.09152V49.4636Z" fill="black"/>
<path d="M121.062 18.7772C121.062 21.2126 120.525 23.4167 119.45 25.3893C118.4 27.3377 116.911 28.9451 114.982 30.2115C113.053 31.4779 110.77 32.3425 108.133 32.8052C107.571 32.9026 107.009 33.0001 106.448 33.0975C105.911 33.1705 105.361 33.2314 104.8 33.2801C104.262 33.3288 103.676 33.3532 103.041 33.3532C101.357 33.3532 99.7939 33.2436 98.3532 33.0244C96.9126 32.8052 95.594 32.4764 94.3975 32.0381C93.2255 31.5753 92.1999 31.003 91.3209 30.3211L91.6139 29.1886C92.4441 29.8218 93.3842 30.3333 94.4342 30.7229C95.4841 31.1126 96.5951 31.4049 97.7672 31.5997C98.9637 31.7702 100.148 31.8554 101.32 31.8554C104.934 31.8554 107.791 30.7595 109.891 28.5676C112.015 26.3513 113.077 23.1244 113.077 18.8868C113.077 15.6963 112.418 12.8712 111.099 10.4115C109.781 7.95168 107.937 6.01551 105.569 4.60296C103.225 3.19041 100.502 2.48414 97.4009 2.48414H93.3354V49.2444C93.3354 49.6828 93.4452 50.0237 93.665 50.2673C93.8848 50.4864 94.2388 50.6326 94.7272 50.7056L98.0968 51.2171C98.341 51.2658 98.5119 51.3388 98.6096 51.4363C98.7073 51.5093 98.7561 51.6311 98.7561 51.8016C98.7561 52.1669 98.512 52.3495 98.0236 52.3495H80.9921C80.748 52.3495 80.5648 52.3008 80.4427 52.2034C80.3206 52.0816 80.2596 51.9477 80.2596 51.8016C80.2596 51.5093 80.4794 51.3145 80.9189 51.2171L84.0322 50.7056C84.5205 50.6082 84.8746 50.4499 85.0943 50.2307C85.3385 50.0115 85.4606 49.6828 85.4606 49.2444V4.09152C85.4606 3.72621 85.3385 3.44613 85.0943 3.2513C84.8746 3.05646 84.5205 2.92251 84.0322 2.84945L80.9189 2.33801C80.4794 2.2406 80.2596 2.04576 80.2596 1.75351C80.2596 1.58303 80.3206 1.44908 80.4427 1.35167C80.5648 1.25425 80.748 1.20554 80.9921 1.20554H97.4742C102.48 1.20554 106.741 1.94834 110.257 3.43395C113.773 4.89521 116.447 6.94097 118.278 9.57124C120.134 12.2015 121.062 15.2701 121.062 18.7772ZM102.675 32.6226L110.184 31.7458L120.732 48.6233C121.294 49.5244 121.892 50.1333 122.527 50.4499C123.186 50.7665 123.943 51.0101 124.798 51.1805C125.14 51.2536 125.372 51.3388 125.494 51.4363C125.616 51.5093 125.677 51.6311 125.677 51.8016C125.677 51.9477 125.616 52.0816 125.494 52.2034C125.372 52.3008 125.176 52.3495 124.908 52.3495H110.367C109.854 52.3495 109.598 52.1669 109.598 51.8016C109.598 51.6798 109.646 51.5824 109.744 51.5093C109.842 51.4363 109.988 51.3632 110.184 51.2901L111.942 51.0344C112.503 50.8883 112.821 50.6326 112.894 50.2673C112.992 49.8776 112.833 49.354 112.418 48.6964L102.675 32.6226Z" fill="black"/>
<path d="M139.392 25.7181H151.186C152.919 25.7181 154.165 25.3406 154.922 24.5857C155.703 23.8063 156.179 22.3816 156.35 20.3115C156.399 20.0923 156.472 19.934 156.57 19.8366C156.667 19.7148 156.777 19.6539 156.899 19.6539C157.266 19.6052 157.51 19.8244 157.632 20.3115L160.928 31.6362C161.002 31.8798 161.002 32.0746 160.928 32.2207C160.88 32.3425 160.77 32.4277 160.599 32.4764C160.452 32.5252 160.306 32.5252 160.159 32.4764C160.037 32.4277 159.903 32.3181 159.756 32.1477C158.902 30.7838 158.12 29.7366 157.412 29.006C156.729 28.251 155.972 27.7395 155.141 27.4716C154.336 27.1794 153.347 27.0333 152.175 27.0333H139.392V25.7181ZM128.404 1.75351C128.404 1.58303 128.465 1.44908 128.587 1.35167C128.709 1.25425 128.892 1.20554 129.136 1.20554H158.438C159.024 1.20554 159.537 1.10812 159.976 0.913285C160.44 0.694098 160.831 0.487087 161.148 0.292252C161.466 0.0974173 161.746 0 161.991 0C162.186 0 162.345 0.0730634 162.467 0.21919C162.589 0.340961 162.711 0.621036 162.833 1.05941L165.836 12.4938C165.91 12.7373 165.91 12.9321 165.836 13.0783C165.763 13.2 165.641 13.2974 165.47 13.3705C165.299 13.4192 165.128 13.407 164.957 13.334C164.811 13.2609 164.677 13.1026 164.554 12.8591C163.382 10.7402 162.32 9.01109 161.368 7.6716C160.44 6.30776 159.537 5.24835 158.658 4.49337C157.803 3.73838 156.924 3.22694 156.02 2.95905C155.117 2.66679 154.128 2.52067 153.054 2.52067H141.48V48.9887C141.48 49.6706 141.687 50.182 142.102 50.523C142.517 50.8639 143.14 51.0344 143.97 51.0344H153.64C155.105 51.0344 156.423 50.7178 157.595 50.0846C158.767 49.4514 159.988 48.2093 161.258 46.3584C162.528 44.4831 164.017 41.7067 165.726 38.0292C165.824 37.81 165.934 37.6639 166.056 37.5909C166.203 37.4934 166.374 37.4569 166.569 37.4813C166.764 37.5056 166.899 37.603 166.972 37.7735C167.045 37.944 167.045 38.1632 166.972 38.4311L163.529 52.3861C163.431 52.8001 163.309 53.0924 163.163 53.2628C163.041 53.4333 162.87 53.5186 162.65 53.5186C162.381 53.5186 162.076 53.4211 161.734 53.2263C161.392 53.0315 160.965 52.8366 160.452 52.6418C159.939 52.447 159.292 52.3495 158.511 52.3495H129.136C128.892 52.3495 128.709 52.3008 128.587 52.2034C128.465 52.0816 128.404 51.9477 128.404 51.8016C128.404 51.5093 128.624 51.3145 129.063 51.2171L132.176 50.7056C132.665 50.6326 133.031 50.4986 133.275 50.3038C133.519 50.109 133.641 49.8289 133.641 49.4636V4.09152C133.641 3.72621 133.519 3.44613 133.275 3.2513C133.031 3.05646 132.665 2.92251 132.176 2.84945L129.063 2.33801C128.624 2.2406 128.404 2.04576 128.404 1.75351Z" fill="black"/>
<path d="M214.602 38.6503C214.406 40.6473 213.808 42.5469 212.807 44.3492C211.83 46.127 210.512 47.7101 208.851 49.0982C207.191 50.4621 205.225 51.5459 202.954 52.3495C200.708 53.1289 198.205 53.5186 195.446 53.5186C190.538 53.5186 186.289 52.4104 182.7 50.1942C179.135 47.978 176.388 44.9093 174.459 40.9883C172.53 37.0429 171.565 32.4886 171.565 27.3255C171.565 23.3558 172.139 19.7148 173.286 16.4026C174.459 13.0904 176.107 10.2288 178.231 7.81773C180.38 5.3823 182.907 3.50702 185.813 2.19189C188.743 0.852401 191.954 0.182657 195.446 0.182657C197.912 0.182657 199.951 0.462731 201.562 1.02288C203.174 1.55868 204.407 2.10665 205.262 2.6668C206.116 3.20259 206.666 3.47049 206.91 3.47049C207.252 3.47049 207.618 3.21477 208.009 2.70333C208.399 2.16753 208.778 1.64392 209.144 1.13248C209.51 0.596682 209.803 0.328785 210.023 0.328785C210.194 0.328785 210.341 0.389671 210.463 0.511442C210.585 0.608858 210.682 0.803691 210.756 1.09594L214.602 14.3203C214.699 14.5639 214.699 14.7831 214.602 14.9779C214.504 15.1727 214.333 15.2945 214.089 15.3432C213.869 15.3676 213.661 15.331 213.466 15.2336C213.295 15.1118 213.149 14.917 213.027 14.6491C211.732 11.5318 210.267 9.02326 208.631 7.12363C206.995 5.224 205.188 3.8358 203.211 2.95905C201.233 2.08229 199.072 1.64392 196.728 1.64392C194.286 1.64392 192.039 2.16753 189.988 3.21477C187.937 4.262 186.142 5.78415 184.604 7.7812C183.09 9.75389 181.906 12.165 181.051 15.0144C180.221 17.8395 179.806 21.0665 179.806 24.6952C179.806 30.1263 180.612 34.717 182.223 38.4676C183.859 42.2182 186.106 45.0676 188.963 47.016C191.844 48.9399 195.14 49.9019 198.852 49.9019C202.661 49.9019 205.823 48.8912 208.338 46.8698C210.878 44.8241 212.624 42.072 213.576 38.6137C213.674 38.3945 213.771 38.2484 213.869 38.1754C213.967 38.1023 214.089 38.0779 214.235 38.1023C214.357 38.1023 214.443 38.1632 214.492 38.2849C214.565 38.3824 214.602 38.5041 214.602 38.6503Z" fill="black"/>
<path d="M224.629 1.20554H253.711C254.273 1.20554 254.761 1.10812 255.176 0.913285C255.616 0.718453 255.994 0.52362 256.311 0.328785C256.653 0.109595 256.934 0 257.154 0C257.374 0 257.557 0.0730634 257.703 0.21919C257.85 0.365314 257.972 0.657565 258.07 1.09594L260.414 13.5532C260.487 13.8454 260.487 14.0768 260.414 14.2473C260.34 14.4177 260.206 14.5273 260.011 14.576C259.84 14.6004 259.681 14.576 259.535 14.503C259.388 14.4056 259.254 14.2351 259.132 13.9915C257.862 10.7281 256.702 8.28046 255.652 6.64872C254.627 4.99263 253.589 3.89669 252.539 3.36089C251.513 2.80074 250.366 2.52067 249.096 2.52067H243.236V49.4636C243.236 49.8289 243.358 50.109 243.602 50.3038C243.846 50.4986 244.2 50.6326 244.664 50.7056L247.777 51.2171C248.241 51.3145 248.473 51.5093 248.473 51.8016C248.473 52.1669 248.217 52.3495 247.704 52.3495H230.892C230.648 52.3495 230.465 52.3008 230.343 52.2034C230.221 52.0816 230.16 51.9477 230.16 51.8016C230.16 51.5093 230.38 51.3145 230.819 51.2171L233.932 50.7056C234.421 50.6326 234.787 50.4986 235.031 50.3038C235.275 50.109 235.398 49.8289 235.398 49.4636V2.52067H229.501C228.255 2.52067 227.108 2.8251 226.058 3.43395C225.032 4.01846 223.994 5.13876 222.944 6.79485C221.919 8.42658 220.771 10.8255 219.501 13.9915C219.404 14.2351 219.27 14.4056 219.099 14.503C218.952 14.576 218.781 14.6004 218.586 14.576C218.39 14.5273 218.256 14.4177 218.183 14.2473C218.134 14.0768 218.134 13.8454 218.183 13.5532L220.564 1.09594C220.661 0.657565 220.783 0.365314 220.93 0.21919C221.076 0.0730634 221.26 0 221.479 0C221.699 0 221.943 0.109595 222.212 0.328785C222.48 0.52362 222.81 0.718453 223.201 0.913285C223.616 1.10812 224.092 1.20554 224.629 1.20554Z" fill="black"/>
<path d="M276.098 25.7181H287.892C289.626 25.7181 290.871 25.3406 291.628 24.5857C292.41 23.8063 292.886 22.3816 293.057 20.3115C293.106 20.0923 293.179 19.934 293.276 19.8366C293.374 19.7148 293.484 19.6539 293.606 19.6539C293.972 19.6052 294.217 19.8244 294.339 20.3115L297.635 31.6362C297.708 31.8798 297.708 32.0746 297.635 32.2207C297.586 32.3425 297.476 32.4277 297.305 32.4764C297.159 32.5252 297.012 32.5252 296.866 32.4764C296.744 32.4277 296.609 32.3181 296.463 32.1477C295.608 30.7838 294.827 29.7366 294.119 29.006C293.435 28.251 292.678 27.7395 291.848 27.4716C291.042 27.1794 290.053 27.0333 288.881 27.0333H276.098V25.7181ZM265.11 1.75351C265.11 1.58303 265.171 1.44908 265.294 1.35167C265.416 1.25425 265.599 1.20554 265.843 1.20554H295.144C295.73 1.20554 296.243 1.10812 296.683 0.913285C297.147 0.694098 297.537 0.487087 297.855 0.292252C298.172 0.0974173 298.453 0 298.697 0C298.893 0 299.051 0.0730634 299.173 0.21919C299.295 0.340961 299.418 0.621036 299.54 1.05941L302.543 12.4938C302.616 12.7373 302.616 12.9321 302.543 13.0783C302.47 13.2 302.348 13.2974 302.177 13.3705C302.006 13.4192 301.835 13.407 301.664 13.334C301.517 13.2609 301.383 13.1026 301.261 12.8591C300.089 10.7402 299.027 9.01109 298.075 7.6716C297.147 6.30776 296.243 5.24835 295.364 4.49337C294.51 3.73838 293.63 3.22694 292.727 2.95905C291.824 2.66679 290.835 2.52067 289.76 2.52067H278.186V48.9887C278.186 49.6706 278.394 50.182 278.809 50.523C279.224 50.8639 279.847 51.0344 280.677 51.0344H290.346C291.811 51.0344 293.13 50.7178 294.302 50.0846C295.474 49.4514 296.695 48.2093 297.965 46.3584C299.234 44.4831 300.724 41.7067 302.433 38.0292C302.531 37.81 302.641 37.6639 302.763 37.5909C302.909 37.4934 303.08 37.4569 303.276 37.4813C303.471 37.5056 303.605 37.603 303.678 37.7735C303.752 37.944 303.752 38.1632 303.678 38.4311L300.236 52.3861C300.138 52.8001 300.016 53.0924 299.869 53.2628C299.747 53.4333 299.576 53.5186 299.357 53.5186C299.088 53.5186 298.783 53.4211 298.441 53.2263C298.099 53.0315 297.672 52.8366 297.159 52.6418C296.646 52.447 295.999 52.3495 295.218 52.3495H265.843C265.599 52.3495 265.416 52.3008 265.294 52.2034C265.171 52.0816 265.11 51.9477 265.11 51.8016C265.11 51.5093 265.33 51.3145 265.77 51.2171L268.883 50.7056C269.371 50.6326 269.738 50.4986 269.982 50.3038C270.226 50.109 270.348 49.8289 270.348 49.4636V4.09152C270.348 3.72621 270.226 3.44613 269.982 3.2513C269.738 3.05646 269.371 2.92251 268.883 2.84945L265.77 2.33801C265.33 2.2406 265.11 2.04576 265.11 1.75351Z" fill="black"/>
<path d="M347.133 30.6864L345.814 6.50259C345.741 5.60149 345.484 4.87086 345.045 4.31071C344.605 3.75056 343.848 3.33654 342.774 3.06864L339.588 2.37455C339.319 2.30148 339.124 2.21624 339.002 2.11882C338.904 2.02141 338.855 1.89963 338.855 1.75351C338.855 1.58303 338.916 1.44908 339.038 1.35167C339.185 1.25425 339.368 1.20554 339.588 1.20554H352.81C353.054 1.20554 353.237 1.25425 353.359 1.35167C353.481 1.44908 353.542 1.58303 353.542 1.75351C353.542 1.89963 353.481 2.02141 353.359 2.11882C353.237 2.21624 353.03 2.30148 352.737 2.37455L350.063 3.10517C349.111 3.34872 348.402 3.77492 347.938 4.38377C347.475 4.99263 347.267 5.72326 347.316 6.57566L348.671 30.4307C348.744 31.7215 348.818 33.0001 348.891 34.2665C348.964 35.5086 349.013 36.7872 349.037 38.1023C349.062 40.9517 348.476 43.5333 347.279 45.847C346.083 48.1606 344.203 49.9994 341.639 51.3632C339.099 52.7027 335.827 53.3724 331.823 53.3724C327.476 53.3724 323.862 52.7392 320.981 51.4728C318.1 50.2064 315.939 48.465 314.498 46.2488C313.082 44.0326 312.386 41.4997 312.41 38.6503C312.41 37.944 312.435 37.0551 312.484 35.9835C312.533 34.8875 312.594 33.755 312.667 32.586C312.74 31.417 312.801 30.3698 312.85 29.4443L314.278 4.16459C314.303 3.77492 314.181 3.48267 313.912 3.28783C313.644 3.06864 313.229 2.91034 312.667 2.81292L309.663 2.37455C309.151 2.25277 308.894 2.04576 308.894 1.75351C308.894 1.58303 308.955 1.44908 309.077 1.35167C309.2 1.25425 309.383 1.20554 309.627 1.20554H326.768C327.012 1.20554 327.196 1.25425 327.318 1.35167C327.464 1.44908 327.537 1.58303 327.537 1.75351C327.537 1.89963 327.476 2.02141 327.354 2.11882C327.232 2.21624 327.025 2.2893 326.732 2.33801L323.655 2.81292C323.118 2.91034 322.727 3.05646 322.483 3.2513C322.239 3.44613 322.104 3.78709 322.08 4.27418L320.688 29.2252C320.566 31.0517 320.493 32.7322 320.468 34.2665C320.444 35.7765 320.432 37.0794 320.432 38.1754C320.383 42.7296 321.494 46.127 323.765 48.3676C326.06 50.6082 329.271 51.7285 333.398 51.7285C336.279 51.7285 338.77 51.1805 340.87 50.0846C342.994 48.9887 344.618 47.4422 345.741 45.4451C346.889 43.4237 347.45 41.037 347.426 38.2849C347.426 36.7263 347.389 35.3259 347.316 34.0838C347.243 32.8418 347.182 31.7093 347.133 30.6864Z" fill="black"/>
<path d="M399.411 18.7772C399.411 21.2126 398.874 23.4167 397.8 25.3893C396.75 27.3377 395.26 28.9451 393.331 30.2115C391.402 31.4779 389.119 32.3425 386.482 32.8052C385.92 32.9026 385.359 33.0001 384.797 33.0975C384.26 33.1705 383.71 33.2314 383.149 33.2801C382.612 33.3288 382.026 33.3532 381.391 33.3532C379.706 33.3532 378.143 33.2436 376.703 33.0244C375.262 32.8052 373.943 32.4764 372.747 32.0381C371.575 31.5753 370.549 31.003 369.67 30.3211L369.963 29.1886C370.793 29.8218 371.733 30.3333 372.783 30.7229C373.833 31.1126 374.944 31.4049 376.117 31.5997C377.313 31.7702 378.497 31.8554 379.669 31.8554C383.283 31.8554 386.14 30.7595 388.24 28.5676C390.364 26.3513 391.427 23.1244 391.427 18.8868C391.427 15.6963 390.767 12.8712 389.449 10.4115C388.13 7.95168 386.287 6.01551 383.918 4.60296C381.574 3.19041 378.851 2.48414 375.75 2.48414H371.685V49.2444C371.685 49.6828 371.795 50.0237 372.014 50.2673C372.234 50.4864 372.588 50.6326 373.076 50.7056L376.446 51.2171C376.69 51.2658 376.861 51.3388 376.959 51.4363C377.057 51.5093 377.105 51.6311 377.105 51.8016C377.105 52.1669 376.861 52.3495 376.373 52.3495H359.341C359.097 52.3495 358.914 52.3008 358.792 52.2034C358.67 52.0816 358.609 51.9477 358.609 51.8016C358.609 51.5093 358.829 51.3145 359.268 51.2171L362.381 50.7056C362.87 50.6082 363.224 50.4499 363.444 50.2307C363.688 50.0115 363.81 49.6828 363.81 49.2444V4.09152C363.81 3.72621 363.688 3.44613 363.444 3.2513C363.224 3.05646 362.87 2.92251 362.381 2.84945L359.268 2.33801C358.829 2.2406 358.609 2.04576 358.609 1.75351C358.609 1.58303 358.67 1.44908 358.792 1.35167C358.914 1.25425 359.097 1.20554 359.341 1.20554H375.823C380.829 1.20554 385.09 1.94834 388.606 3.43395C392.122 4.89521 394.796 6.94097 396.628 9.57124C398.483 12.2015 399.411 15.2701 399.411 18.7772ZM381.025 32.6226L388.533 31.7458L399.082 48.6233C399.643 49.5244 400.241 50.1333 400.876 50.4499C401.535 50.7665 402.292 51.0101 403.147 51.1805C403.489 51.2536 403.721 51.3388 403.843 51.4363C403.965 51.5093 404.026 51.6311 404.026 51.8016C404.026 51.9477 403.965 52.0816 403.843 52.2034C403.721 52.3008 403.526 52.3495 403.257 52.3495H388.716C388.203 52.3495 387.947 52.1669 387.947 51.8016C387.947 51.6798 387.996 51.5824 388.093 51.5093C388.191 51.4363 388.338 51.3632 388.533 51.2901L390.291 51.0344C390.853 50.8883 391.17 50.6326 391.243 50.2673C391.341 49.8776 391.182 49.354 390.767 48.6964L381.025 32.6226Z" fill="black"/>
<path d="M10.5119 96.3334H30.4735L30.62 97.7216H10.2921L10.5119 96.3334ZM12.1967 115.732C12.1967 115.878 12.1357 116.012 12.0136 116.133C11.9159 116.231 11.7328 116.28 11.4642 116.28H0.732536C0.488357 116.28 0.305223 116.231 0.183134 116.133C0.0610446 116.036 0 115.902 0 115.732C0 115.585 0.0488357 115.476 0.146507 115.403C0.244179 115.305 0.390686 115.232 0.586029 115.184L2.19761 114.672C2.88131 114.429 3.49175 114.002 4.02895 113.394C4.59056 112.76 5.10333 111.689 5.56727 110.179L18.2401 69.1905C18.4843 68.4112 18.4843 67.8145 18.2401 67.4005C18.0204 66.9621 17.5076 66.6333 16.7018 66.4141C16.36 66.268 16.1036 66.1462 15.9327 66.0488C15.7861 65.9271 15.7129 65.7931 15.7129 65.647C15.7129 65.4765 15.7739 65.3547 15.896 65.2817C16.0181 65.1842 16.2135 65.1356 16.4821 65.1356H29.1183C29.3625 65.1356 29.5456 65.1842 29.6677 65.2817C29.7898 65.3547 29.8508 65.4765 29.8508 65.647C29.8508 65.7931 29.7776 65.9271 29.6311 66.0488C29.4846 66.1706 29.2404 66.2802 28.8985 66.3776C28.1904 66.475 27.7631 66.6455 27.6166 66.8891C27.4945 67.1083 27.5311 67.5101 27.7265 68.0946L42.3772 112.809C42.597 113.54 42.9144 114.076 43.3295 114.416C43.769 114.757 44.3428 114.977 45.051 115.074C45.344 115.171 45.5393 115.269 45.637 115.366C45.7346 115.439 45.7835 115.561 45.7835 115.732C45.7835 115.878 45.7224 116.012 45.6004 116.133C45.4783 116.231 45.2951 116.28 45.051 116.28H31.0595C30.8398 116.28 30.6566 116.231 30.5101 116.133C30.388 116.012 30.327 115.878 30.327 115.732C30.327 115.585 30.388 115.476 30.5101 115.403C30.6322 115.305 30.8031 115.232 31.0229 115.184L33.1839 114.891C33.7455 114.77 34.0751 114.538 34.1728 114.197C34.2949 113.832 34.2583 113.333 34.0629 112.699L19.632 68.1311L20.4744 67.0352L7.14222 110.106C6.87363 111.007 6.80037 111.762 6.92246 112.371C7.06897 112.98 7.3864 113.479 7.87476 113.868C8.38754 114.234 9.04682 114.538 9.85261 114.782L11.5374 115.184C11.7816 115.232 11.9525 115.305 12.0502 115.403C12.1479 115.476 12.1967 115.585 12.1967 115.732Z" fill="black"/>
<path d="M90.158 82.7072C90.158 85.1426 89.6208 87.3467 88.5464 89.3194C87.4964 91.2677 86.007 92.8751 84.0779 94.1415C82.1489 95.4079 79.8659 96.2725 77.2287 96.7352C76.6671 96.8327 76.1055 96.9301 75.5439 97.0275C75.0067 97.1006 74.4573 97.1614 73.8957 97.2102C73.3585 97.2589 72.7725 97.2832 72.1376 97.2832C70.4528 97.2832 68.89 97.1736 67.4494 96.9544C66.0087 96.7352 64.6902 96.4065 63.4937 95.9681C62.3216 95.5053 61.2961 94.933 60.417 94.2511L60.7101 93.1186C61.5403 93.7518 62.4804 94.2633 63.5303 94.6529C64.5803 95.0426 65.6913 95.3349 66.8634 95.5297C68.0598 95.7002 69.2441 95.7854 70.4162 95.7854C74.03 95.7854 76.8869 94.6895 78.9868 92.4976C81.1112 90.2813 82.1733 87.0544 82.1733 82.8168C82.1733 79.6264 81.5141 76.8013 80.1955 74.3415C78.8769 71.8817 77.0334 69.9455 74.6649 68.533C72.3207 67.1204 69.5982 66.4141 66.4971 66.4141H62.4315V113.174C62.4315 113.613 62.5414 113.954 62.7612 114.197C62.9809 114.416 63.335 114.563 63.8233 114.636L67.193 115.147C67.4372 115.196 67.6081 115.269 67.7058 115.366C67.8034 115.439 67.8523 115.561 67.8523 115.732C67.8523 116.097 67.6081 116.28 67.1197 116.28H50.0883C49.8441 116.28 49.661 116.231 49.5389 116.133C49.4168 116.012 49.3557 115.878 49.3557 115.732C49.3557 115.439 49.5755 115.244 50.015 115.147L53.1283 114.636C53.6167 114.538 53.9707 114.38 54.1905 114.161C54.4347 113.942 54.5567 113.613 54.5567 113.174V68.0215C54.5567 67.6562 54.4347 67.3761 54.1905 67.1813C53.9707 66.9865 53.6167 66.8525 53.1283 66.7795L50.015 66.268C49.5755 66.1706 49.3557 65.9758 49.3557 65.6835C49.3557 65.513 49.4168 65.3791 49.5389 65.2817C49.661 65.1842 49.8441 65.1356 50.0883 65.1356H66.5703C71.576 65.1356 75.8369 65.8783 79.3531 67.364C82.8693 68.8252 85.543 70.871 87.3744 73.5013C89.2301 76.1315 90.158 79.2001 90.158 82.7072ZM71.7713 96.5526L79.2798 95.6758L89.8283 112.553C90.39 113.454 90.9882 114.063 91.6231 114.38C92.2823 114.697 93.0393 114.94 93.8939 115.111C94.2358 115.184 94.4677 115.269 94.5898 115.366C94.7119 115.439 94.773 115.561 94.773 115.732C94.773 115.878 94.7119 116.012 94.5898 116.133C94.4677 116.231 94.2724 116.28 94.0038 116.28H79.463C78.9502 116.28 78.6938 116.097 78.6938 115.732C78.6938 115.61 78.7426 115.512 78.8403 115.439C78.938 115.366 79.0845 115.293 79.2798 115.22L81.0379 114.964C81.5995 114.818 81.917 114.563 81.9902 114.197C82.0879 113.808 81.9292 113.284 81.5141 112.626L71.7713 96.5526Z" fill="black"/>
<path d="M102.445 65.1356H131.526C132.088 65.1356 132.576 65.0381 132.991 64.8433C133.431 64.6485 133.809 64.4536 134.127 64.2588C134.469 64.0396 134.749 63.93 134.969 63.93C135.189 63.93 135.372 64.0031 135.519 64.1492C135.665 64.2953 135.787 64.5876 135.885 65.0259L138.229 77.4832C138.302 77.7754 138.302 78.0068 138.229 78.1773C138.156 78.3478 138.021 78.4574 137.826 78.5061C137.655 78.5304 137.496 78.5061 137.35 78.433C137.203 78.3356 137.069 78.1651 136.947 77.9216C135.677 74.6581 134.517 72.2105 133.467 70.5787C132.442 68.9226 131.404 67.8267 130.354 67.2909C129.329 66.7308 128.181 66.4507 126.911 66.4507H121.051V113.394C121.051 113.759 121.173 114.039 121.417 114.234C121.661 114.429 122.015 114.563 122.479 114.636L125.593 115.147C126.057 115.244 126.289 115.439 126.289 115.732C126.289 116.097 126.032 116.28 125.519 116.28H108.708C108.464 116.28 108.28 116.231 108.158 116.133C108.036 116.012 107.975 115.878 107.975 115.732C107.975 115.439 108.195 115.244 108.634 115.147L111.748 114.636C112.236 114.563 112.602 114.429 112.847 114.234C113.091 114.039 113.213 113.759 113.213 113.394V66.4507H107.316C106.071 66.4507 104.923 66.7551 103.873 67.364C102.847 67.9485 101.81 69.0688 100.76 70.7249C99.7342 72.3566 98.5865 74.7555 97.3168 77.9216C97.2191 78.1651 97.0848 78.3356 96.9139 78.433C96.7674 78.5061 96.5965 78.5304 96.4011 78.5061C96.2058 78.4574 96.0715 78.3478 95.9982 78.1773C95.9494 78.0068 95.9494 77.7754 95.9982 77.4832L98.379 65.0259C98.4767 64.5876 98.5987 64.2953 98.7453 64.1492C98.8918 64.0031 99.0749 63.93 99.2947 63.93C99.5144 63.93 99.7586 64.0396 100.027 64.2588C100.296 64.4536 100.625 64.6485 101.016 64.8433C101.431 65.0381 101.907 65.1356 102.445 65.1356Z" fill="black"/>
<path d="M156.002 113.394C156.002 113.735 156.124 114.015 156.368 114.234C156.612 114.429 156.966 114.563 157.43 114.636L160.543 115.147C160.983 115.244 161.203 115.439 161.203 115.732C161.203 115.902 161.141 116.036 161.019 116.133C160.922 116.231 160.739 116.28 160.47 116.28H143.658C143.414 116.28 143.231 116.231 143.109 116.133C142.987 116.036 142.926 115.902 142.926 115.732C142.926 115.439 143.146 115.244 143.585 115.147L146.698 114.636C147.187 114.563 147.541 114.429 147.76 114.234C148.005 114.015 148.127 113.735 148.127 113.394V68.0215C148.127 67.6806 148.005 67.4127 147.76 67.2178C147.541 66.9987 147.187 66.8525 146.698 66.7795L143.585 66.268C143.146 66.195 142.926 66.0001 142.926 65.6835C142.926 65.513 142.987 65.3791 143.109 65.2817C143.231 65.1842 143.414 65.1356 143.658 65.1356H160.47C160.739 65.1356 160.922 65.1842 161.019 65.2817C161.141 65.3791 161.203 65.513 161.203 65.6835C161.203 66.0001 160.983 66.195 160.543 66.268L157.43 66.7795C156.966 66.8525 156.612 66.9987 156.368 67.2178C156.124 67.4127 156.002 67.6806 156.002 68.0215V113.394Z" fill="black"/>
<path d="M186.987 117.156C184.667 117.156 182.75 116.852 181.236 116.243C179.722 115.61 178.526 114.989 177.647 114.38C176.792 113.747 176.194 113.43 175.852 113.43C175.632 113.43 175.388 113.625 175.12 114.015C174.851 114.38 174.57 114.818 174.277 115.33C173.984 115.817 173.691 116.255 173.398 116.645C173.129 117.035 172.861 117.229 172.592 117.229C172.397 117.229 172.214 117.156 172.043 117.01C171.896 116.888 171.799 116.694 171.75 116.426L168.856 102.726C168.832 102.532 168.844 102.361 168.893 102.215C168.942 102.044 169.052 101.935 169.223 101.886C169.418 101.789 169.589 101.789 169.735 101.886C169.906 101.984 170.041 102.142 170.138 102.361C171.725 105.746 173.398 108.425 175.156 110.398C176.939 112.346 178.782 113.747 180.687 114.599C182.591 115.427 184.52 115.841 186.474 115.841C189.257 115.841 191.467 115.074 193.103 113.54C194.739 111.981 195.57 109.826 195.594 107.074C195.594 105.418 195.228 103.871 194.495 102.434C193.763 100.997 192.481 99.6456 190.649 98.3792C188.842 97.0884 186.291 95.8585 182.994 94.6895C179.283 93.35 176.316 91.8887 174.094 90.3057C171.896 88.7227 170.297 86.9692 169.296 85.0452C168.319 83.0968 167.831 80.9049 167.831 78.4695C167.831 75.6444 168.515 73.1725 169.882 71.0536C171.274 68.9348 173.166 67.2909 175.559 66.1219C177.952 64.9285 180.675 64.3319 183.727 64.3319C185.973 64.3319 187.805 64.6119 189.221 65.1721C190.662 65.7079 191.797 66.2558 192.627 66.816C193.457 67.3518 194.08 67.6197 194.495 67.6197C194.837 67.6197 195.203 67.3396 195.594 66.7795C195.985 66.2193 196.375 65.6592 196.766 65.099C197.157 64.5389 197.511 64.2588 197.828 64.2588C198.023 64.2588 198.182 64.3197 198.304 64.4414C198.451 64.5632 198.561 64.7824 198.634 65.099L202.37 79.0906C202.443 79.3097 202.443 79.5046 202.37 79.6751C202.321 79.8455 202.211 79.9673 202.04 80.0404C201.869 80.1134 201.698 80.1134 201.527 80.0404C201.381 79.943 201.247 79.7968 201.125 79.602C199.415 76.0706 197.657 73.2942 195.85 71.2728C194.043 69.2271 192.175 67.7902 190.246 66.9621C188.317 66.1097 186.303 65.6835 184.203 65.6835C181.395 65.6835 179.087 66.5359 177.281 68.2407C175.498 69.9212 174.607 72.2592 174.607 75.2548C174.607 76.9839 174.961 78.5913 175.669 80.0769C176.401 81.5382 177.647 82.9264 179.405 84.2415C181.187 85.5323 183.666 86.7743 186.84 87.9677C190.723 89.4046 193.775 90.9146 195.997 92.4976C198.219 94.0806 199.794 95.7976 200.722 97.6485C201.65 99.4751 202.113 101.509 202.113 103.749C202.113 106.233 201.515 108.498 200.319 110.544C199.147 112.566 197.425 114.173 195.154 115.366C192.908 116.56 190.185 117.156 186.987 117.156Z" fill="black"/>
<path d="M213.469 65.1356H242.551C243.113 65.1356 243.601 65.0381 244.016 64.8433C244.456 64.6485 244.834 64.4536 245.152 64.2588C245.494 64.0396 245.774 63.93 245.994 63.93C246.214 63.93 246.397 64.0031 246.544 64.1492C246.69 64.2953 246.812 64.5876 246.91 65.0259L249.254 77.4832C249.327 77.7754 249.327 78.0068 249.254 78.1773C249.181 78.3478 249.046 78.4574 248.851 78.5061C248.68 78.5304 248.521 78.5061 248.375 78.433C248.228 78.3356 248.094 78.1651 247.972 77.9216C246.702 74.6581 245.542 72.2105 244.492 70.5787C243.467 68.9226 242.429 67.8267 241.379 67.2909C240.354 66.7308 239.206 66.4507 237.936 66.4507H232.076V113.394C232.076 113.759 232.198 114.039 232.442 114.234C232.686 114.429 233.04 114.563 233.504 114.636L236.618 115.147C237.082 115.244 237.314 115.439 237.314 115.732C237.314 116.097 237.057 116.28 236.544 116.28H219.733C219.489 116.28 219.305 116.231 219.183 116.133C219.061 116.012 219 115.878 219 115.732C219 115.439 219.22 115.244 219.659 115.147L222.773 114.636C223.261 114.563 223.627 114.429 223.872 114.234C224.116 114.039 224.238 113.759 224.238 113.394V66.4507H218.341C217.096 66.4507 215.948 66.7551 214.898 67.364C213.872 67.9485 212.835 69.0688 211.785 70.7249C210.759 72.3566 209.611 74.7555 208.342 77.9216C208.244 78.1651 208.11 78.3356 207.939 78.433C207.792 78.5061 207.621 78.5304 207.426 78.5061C207.231 78.4574 207.096 78.3478 207.023 78.1773C206.974 78.0068 206.974 77.7754 207.023 77.4832L209.404 65.0259C209.502 64.5876 209.624 64.2953 209.77 64.1492C209.917 64.0031 210.1 63.93 210.32 63.93C210.539 63.93 210.784 64.0396 211.052 64.2588C211.321 64.4536 211.65 64.6485 212.041 64.8433C212.456 65.0381 212.932 65.1356 213.469 65.1356Z" fill="black"/>
<path d="M267.026 113.394C267.026 113.735 267.149 114.015 267.393 114.234C267.637 114.429 267.991 114.563 268.455 114.636L271.568 115.147C272.008 115.244 272.227 115.439 272.227 115.732C272.227 115.902 272.166 116.036 272.044 116.133C271.947 116.231 271.764 116.28 271.495 116.28H254.683C254.439 116.28 254.256 116.231 254.134 116.133C254.012 116.036 253.951 115.902 253.951 115.732C253.951 115.439 254.17 115.244 254.61 115.147L257.723 114.636C258.212 114.563 258.566 114.429 258.785 114.234C259.03 114.015 259.152 113.735 259.152 113.394V68.0215C259.152 67.6806 259.03 67.4127 258.785 67.2178C258.566 66.9987 258.212 66.8525 257.723 66.7795L254.61 66.268C254.17 66.195 253.951 66.0001 253.951 65.6835C253.951 65.513 254.012 65.3791 254.134 65.2817C254.256 65.1842 254.439 65.1356 254.683 65.1356H271.495C271.764 65.1356 271.947 65.1842 272.044 65.2817C272.166 65.3791 272.227 65.513 272.227 65.6835C272.227 66.0001 272.008 66.195 271.568 66.268L268.455 66.7795C267.991 66.8525 267.637 66.9987 267.393 67.2178C267.149 67.4127 267.026 67.6806 267.026 68.0215V113.394Z" fill="black"/>
<path d="M302.81 64.2588C306.472 64.2588 309.818 64.9164 312.845 66.2315C315.898 67.5466 318.535 69.3976 320.757 71.7843C322.979 74.1466 324.688 76.9474 325.885 80.1865C327.105 83.4013 327.716 86.9205 327.716 90.7441C327.716 94.6651 327.105 98.2574 325.885 101.521C324.688 104.76 322.979 107.549 320.757 109.887C318.535 112.225 315.898 114.027 312.845 115.293C309.793 116.56 306.424 117.193 302.736 117.193C299.025 117.193 295.643 116.547 292.591 115.257C289.563 113.942 286.938 112.103 284.716 109.74C282.518 107.354 280.821 104.541 279.625 101.302C278.453 98.0382 277.867 94.4459 277.867 90.5249C277.867 86.6282 278.477 83.0725 279.698 79.8577C280.919 76.643 282.628 73.8787 284.826 71.5651C287.048 69.2271 289.685 67.4249 292.737 66.1584C295.79 64.892 299.147 64.2588 302.81 64.2588ZM319.548 96.0777C319.548 92.6924 319.231 89.4898 318.596 86.4699C317.985 83.4256 317.106 80.6371 315.959 78.1042C314.811 75.5714 313.456 73.3795 311.893 71.5286C310.33 69.6776 308.597 68.2529 306.692 67.2544C304.812 66.2315 302.822 65.7201 300.722 65.7201C297.816 65.7201 295.252 66.4872 293.03 68.0215C290.833 69.5315 289.111 71.7356 287.866 74.6337C286.645 77.5075 286.035 81.0145 286.035 85.1548C286.035 88.5644 286.34 91.8035 286.95 94.8721C287.585 97.9408 288.476 100.754 289.624 103.311C290.772 105.844 292.127 108.048 293.69 109.923C295.252 111.774 296.974 113.211 298.854 114.234C300.759 115.232 302.773 115.732 304.897 115.732C307.828 115.732 310.391 114.989 312.589 113.503C314.787 111.993 316.496 109.777 317.717 106.854C318.938 103.932 319.548 100.34 319.548 96.0777ZM305.154 102.946C305.105 102.702 305.105 102.495 305.154 102.325C305.227 102.154 305.361 102.044 305.557 101.996C305.752 101.947 305.911 101.984 306.033 102.105C306.179 102.227 306.289 102.41 306.363 102.653C307.461 106.38 308.621 109.448 309.842 111.859C311.063 114.246 312.369 116.121 313.761 117.485C315.153 118.849 316.63 119.811 318.193 120.371C319.756 120.931 321.428 121.211 323.211 121.211C324.383 121.211 325.311 121.126 325.994 120.956C326.703 120.809 327.276 120.59 327.716 120.298C328.155 120.03 328.571 119.701 328.961 119.312C329.132 119.19 329.279 119.141 329.401 119.166C329.523 119.19 329.608 119.263 329.657 119.385C329.706 119.482 329.706 119.604 329.657 119.75C329.633 119.921 329.559 120.115 329.437 120.335L326.654 124.755C326.361 125.242 325.982 125.595 325.518 125.814C325.079 126.058 324.468 126.18 323.687 126.18C321.758 126.18 319.927 125.778 318.193 124.974C316.484 124.17 314.86 122.867 313.322 121.065C311.808 119.263 310.367 116.876 309 113.905C307.657 110.934 306.375 107.281 305.154 102.946Z" fill="black"/>
<path d="M372.027 94.6164L370.709 70.4326C370.636 69.5315 370.379 68.8009 369.94 68.2407C369.5 67.6806 368.743 67.2665 367.669 66.9986L364.482 66.3046C364.214 66.2315 364.018 66.1462 363.896 66.0488C363.799 65.9514 363.75 65.8296 363.75 65.6835C363.75 65.513 363.811 65.3791 363.933 65.2817C364.079 65.1842 364.263 65.1356 364.482 65.1356H377.705C377.949 65.1356 378.132 65.1842 378.254 65.2817C378.376 65.3791 378.437 65.513 378.437 65.6835C378.437 65.8296 378.376 65.9514 378.254 66.0488C378.132 66.1462 377.924 66.2315 377.631 66.3046L374.958 67.0352C374.005 67.2787 373.297 67.7049 372.833 68.3138C372.369 68.9226 372.162 69.6533 372.211 70.5057L373.566 94.3607C373.639 95.6515 373.712 96.9301 373.786 98.1965C373.859 99.4386 373.908 100.717 373.932 102.032C373.956 104.882 373.37 107.463 372.174 109.777C370.978 112.091 369.097 113.929 366.533 115.293C363.994 116.633 360.722 117.302 356.717 117.302C352.371 117.302 348.757 116.669 345.876 115.403C342.995 114.136 340.834 112.395 339.393 110.179C337.977 107.963 337.281 105.43 337.305 102.58C337.305 101.874 337.33 100.985 337.379 99.9135C337.427 98.8175 337.488 97.6851 337.562 96.5161C337.635 95.347 337.696 94.2998 337.745 93.3744L339.173 68.0946C339.198 67.7049 339.076 67.4127 338.807 67.2178C338.538 66.9987 338.123 66.8403 337.562 66.7429L334.558 66.3046C334.045 66.1828 333.789 65.9758 333.789 65.6835C333.789 65.513 333.85 65.3791 333.972 65.2817C334.094 65.1842 334.277 65.1356 334.522 65.1356H351.663C351.907 65.1356 352.09 65.1842 352.212 65.2817C352.359 65.3791 352.432 65.513 352.432 65.6835C352.432 65.8296 352.371 65.9514 352.249 66.0488C352.127 66.1462 351.919 66.2193 351.626 66.268L348.55 66.7429C348.013 66.8403 347.622 66.9865 347.378 67.1813C347.133 67.3761 346.999 67.7171 346.975 68.2042L345.583 93.1552C345.461 94.9817 345.388 96.6622 345.363 98.1965C345.339 99.7065 345.327 101.009 345.327 102.105C345.278 106.66 346.389 110.057 348.66 112.298C350.955 114.538 354.166 115.659 358.292 115.659C361.174 115.659 363.664 115.111 365.764 114.015C367.889 112.919 369.512 111.372 370.636 109.375C371.783 107.354 372.345 104.967 372.32 102.215C372.32 100.656 372.284 99.2559 372.211 98.0138C372.137 96.7718 372.076 95.6393 372.027 94.6164Z" fill="black"/>
<path d="M394.492 89.6481H406.286C408.019 89.6481 409.265 89.2706 410.021 88.5157C410.803 87.7363 411.279 86.3116 411.45 84.2415C411.499 84.0223 411.572 83.864 411.67 83.7666C411.767 83.6448 411.877 83.5839 411.999 83.5839C412.366 83.5352 412.61 83.7544 412.732 84.2415L416.028 95.5662C416.102 95.8098 416.102 96.0046 416.028 96.1507C415.979 96.2725 415.87 96.3577 415.699 96.4065C415.552 96.4552 415.406 96.4552 415.259 96.4065C415.137 96.3577 415.003 96.2481 414.856 96.0777C414.002 94.7138 413.22 93.6666 412.512 92.936C411.828 92.181 411.071 91.6695 410.241 91.4016C409.435 91.1094 408.447 90.9633 407.274 90.9633H394.492V89.6481ZM383.504 65.6835C383.504 65.513 383.565 65.3791 383.687 65.2817C383.809 65.1842 383.992 65.1356 384.236 65.1356H413.538C414.124 65.1356 414.636 65.0381 415.076 64.8433C415.54 64.6241 415.931 64.4171 416.248 64.2223C416.565 64.0274 416.846 63.93 417.09 63.93C417.286 63.93 417.444 64.0031 417.567 64.1492C417.689 64.271 417.811 64.551 417.933 64.9894L420.936 76.4238C421.009 76.6673 421.009 76.8621 420.936 77.0083C420.863 77.13 420.741 77.2274 420.57 77.3005C420.399 77.3492 420.228 77.3371 420.057 77.264C419.911 77.1909 419.776 77.0326 419.654 76.7891C418.482 74.6702 417.42 72.9411 416.468 71.6016C415.54 70.2378 414.636 69.1784 413.757 68.4234C412.903 67.6684 412.024 67.157 411.12 66.8891C410.217 66.5968 409.228 66.4507 408.154 66.4507H396.579V112.919C396.579 113.601 396.787 114.112 397.202 114.453C397.617 114.794 398.24 114.964 399.07 114.964H408.74C410.205 114.964 411.523 114.648 412.695 114.015C413.867 113.381 415.088 112.139 416.358 110.288C417.628 108.413 419.117 105.637 420.826 101.959C420.924 101.74 421.034 101.594 421.156 101.521C421.303 101.423 421.473 101.387 421.669 101.411C421.864 101.436 421.998 101.533 422.072 101.704C422.145 101.874 422.145 102.093 422.072 102.361L418.629 116.316C418.531 116.73 418.409 117.022 418.263 117.193C418.14 117.363 417.969 117.449 417.75 117.449C417.481 117.449 417.176 117.351 416.834 117.156C416.492 116.961 416.065 116.767 415.552 116.572C415.039 116.377 414.392 116.28 413.611 116.28H384.236C383.992 116.28 383.809 116.231 383.687 116.133C383.565 116.012 383.504 115.878 383.504 115.732C383.504 115.439 383.723 115.244 384.163 115.147L387.276 114.636C387.765 114.563 388.131 114.429 388.375 114.234C388.619 114.039 388.741 113.759 388.741 113.394V68.0215C388.741 67.6562 388.619 67.3761 388.375 67.1813C388.131 66.9865 387.765 66.8525 387.276 66.7795L384.163 66.268C383.723 66.1706 383.504 65.9758 383.504 65.6835Z" fill="black"/>
<path d="M28.3491 147.697C31.0839 147.697 32.4513 148.257 32.4513 149.377C32.4513 149.669 32.3537 149.913 32.1583 150.108C31.5235 151.179 30.1316 151.715 27.9829 151.715C25.8829 151.715 23.9783 151.082 22.2691 149.815C19.632 150.595 16.5553 152.251 13.0391 154.784C7.56954 158.827 4.83474 162.796 4.83474 166.693C4.83474 171.028 7.7893 173.439 13.6984 173.926C14.8705 166.717 18.3867 161.311 24.2469 157.706C26.1515 156.488 28.2026 155.636 30.4002 155.149C32.5978 154.613 34.0873 154.272 34.8687 154.126C35.6989 153.931 37.0663 153.688 38.9709 153.395C40.9243 153.055 42.0476 152.86 42.3406 152.811C46.8823 152.032 49.788 151.155 51.0577 150.181C52.3763 149.207 53.0356 148.281 53.0356 147.404C53.0356 147.161 52.9868 146.893 52.8891 146.601C52.8402 146.308 52.9135 146.138 53.1088 146.089C53.3042 146.04 53.5239 146.114 53.7681 146.308C54.1588 146.844 54.3542 147.502 54.3542 148.281C54.3542 149.06 53.8658 150.01 52.8891 151.131C51.424 152.592 49.3973 153.615 46.809 154.199C45.8323 154.443 44.5138 154.735 42.8533 155.076C41.2418 155.368 40.0697 155.612 39.3372 155.807C40.265 156.683 40.729 157.998 40.729 159.752C40.729 163.356 38.5802 166.888 34.2827 170.346C29.5456 174.145 23.197 176.045 15.2367 176.045C15.1879 176.435 15.1635 177.044 15.1635 177.872C15.1635 181.281 16.2867 183.96 18.5332 185.908C20.8284 187.906 23.7097 188.904 27.1771 188.904C28.398 188.904 29.4479 188.49 30.327 187.662C31.206 186.883 31.6455 185.982 31.6455 184.959C31.6455 184.618 31.5479 184.228 31.3525 183.79C31.1572 183.351 31.3281 183.132 31.8653 183.132C32.4513 183.132 32.7443 183.765 32.7443 185.032C32.7443 186.347 32.1827 187.492 31.0595 188.466C29.9363 189.489 28.6422 190 27.1771 190C23.3679 190 20.1936 188.953 17.6541 186.858C14.7728 184.569 13.3322 181.573 13.3322 177.872C13.3322 177.044 13.3566 176.41 13.4054 175.972C9.1567 175.582 5.93354 174.511 3.73593 172.757C1.73367 171.052 0.732536 169.177 0.732536 167.131C0.732536 162.407 4.34638 157.901 11.5741 153.615C14.9437 151.569 18.2401 150.035 21.4633 149.012C20.0959 147.502 19.4122 145.529 19.4122 143.094C19.4122 141.827 19.7052 140.78 20.2912 139.952C21.9028 137.663 24.3446 135.836 27.6166 134.472C31.4746 132.767 35.3815 131.915 39.3372 131.915C44.5626 131.915 47.1265 133.547 47.0288 136.81C46.9311 138.223 46.3207 139.465 45.1975 140.536C44.1231 141.559 42.9266 142.071 41.608 142.071C40.2895 142.071 39.6302 141.73 39.6302 141.048C39.6302 140.561 39.9476 140.317 40.5825 140.317L41.8278 140.536C42.5115 140.536 43.1708 140.122 43.8056 139.294C44.4893 138.466 44.8312 137.638 44.8312 136.81C44.8312 135.495 44.0742 134.545 42.5603 133.961C41.5836 133.62 40.6557 133.449 39.7767 133.449C35.6745 133.449 32.256 134.302 29.5212 136.007C26.7864 137.711 24.7841 139.611 23.5144 141.705C22.7819 142.923 22.4156 144.19 22.4156 145.505C22.4156 146.82 22.7086 147.818 23.2946 148.5C25.1992 147.964 26.8841 147.697 28.3491 147.697ZM38.3116 159.241C38.3116 157.097 37.3837 156.026 35.528 156.026C34.942 156.026 33.7455 156.245 31.9386 156.683C22.5133 160.19 17.0192 165.962 15.4565 173.999C16.5309 173.999 17.6053 173.926 18.6797 173.78C24.9795 173.098 29.9851 171.101 33.6966 167.789C36.7733 165.012 38.3116 162.163 38.3116 159.241ZM30.2537 149.596C30.2537 149.158 29.5944 148.939 28.2759 148.939C27.0062 148.939 25.6388 149.085 24.1737 149.377C25.3946 150.156 26.7131 150.546 28.1294 150.546C29.5456 150.546 30.2537 150.229 30.2537 149.596Z" fill="black"/>
<path d="M72.5336 179.662C72.5336 179.345 72.7412 179.15 73.1563 179.077L76.4161 178.566C76.88 178.468 77.2219 178.322 77.4416 178.127C77.6614 177.932 77.7713 177.665 77.7713 177.324V132.025C77.7713 131.635 77.6614 131.343 77.4416 131.148C77.2219 130.953 76.88 130.807 76.4161 130.709L73.1563 130.198C72.7412 130.101 72.5336 129.894 72.5336 129.577C72.5336 129.407 72.5947 129.285 72.7168 129.212C72.8389 129.114 73.022 129.066 73.2662 129.066H89.9314C94.3998 129.066 98.4532 129.723 102.091 131.038C105.754 132.329 108.904 134.192 111.541 136.628C114.178 139.063 116.205 141.986 117.621 145.395C119.062 148.78 119.782 152.567 119.782 156.756C119.782 161.53 118.708 165.682 116.559 169.214C114.41 172.721 111.407 175.436 107.549 177.36C103.691 179.26 99.1613 180.21 93.9603 180.21H73.2662C73.022 180.21 72.8389 180.161 72.7168 180.063C72.5947 179.966 72.5336 179.832 72.5336 179.662ZM93.7772 178.931C97.2689 178.931 100.346 178.091 103.007 176.41C105.669 174.73 107.756 172.197 109.27 168.812C110.784 165.427 111.541 161.152 111.541 155.989C111.541 151.971 111.053 148.379 110.076 145.212C109.099 142.046 107.659 139.367 105.754 137.176C103.874 134.959 101.579 133.267 98.8683 132.098C96.1579 130.929 93.0813 130.344 89.6383 130.344H85.6094V177.104C85.6094 177.713 85.7803 178.176 86.1222 178.493C86.4884 178.785 87.0012 178.931 87.6605 178.931H93.7772Z" fill="black"/>
<path d="M159.314 150.473C164.1 150.473 166.493 151.374 166.493 153.176C166.493 153.566 166.346 154.004 166.053 154.491C164.881 156.294 162.757 157.195 159.68 157.195C157.678 157.195 155.627 156.854 153.527 156.172C151.427 155.441 149.84 154.686 148.765 153.907C144.224 155.222 140.17 157.243 136.605 159.971C133.089 162.699 130.452 165.792 128.694 169.25C127.766 171.101 127.302 172.903 127.302 174.657C127.302 177.384 128.425 179.601 130.672 181.306C132.967 183.01 136.312 183.863 140.708 183.863C141.928 183.863 143.198 183.79 144.517 183.644C152.282 182.815 158.459 180.331 163.05 176.191C166.908 172.782 168.837 169.201 168.837 165.451C168.837 162.48 167.396 160.994 164.515 160.994C161.048 160.994 157.068 162.845 152.575 166.547C151.451 167.472 150.499 168.641 149.718 170.054C148.936 171.466 148.546 172.855 148.546 174.218C148.546 175.582 149.229 176.435 150.597 176.776C151.085 176.97 151.329 177.214 151.329 177.506C151.329 177.993 150.841 178.188 149.864 178.091C147.52 178.042 146.348 176.508 146.348 173.488C146.348 170.468 147.886 167.643 150.963 165.012C155.163 161.408 159.607 159.606 164.295 159.606C167.811 159.606 170.033 160.702 170.961 162.894C171.352 163.917 171.547 164.939 171.547 165.962C171.547 170.492 169.032 174.754 164.002 178.748C157.995 183.619 150.377 186.055 141.147 186.055C135.433 186.055 130.916 184.983 127.595 182.84C124.274 180.745 122.614 177.993 122.614 174.584C122.614 172.587 123.249 170.59 124.518 168.593C129.011 161.481 136.679 156.196 147.52 152.738C145.909 150.887 145.103 148.914 145.103 146.82C145.103 144.725 145.616 142.972 146.641 141.559C148.643 138.832 151.647 136.591 155.651 134.838C160.437 132.743 165.223 131.696 170.009 131.696C172.793 131.696 175.015 132.159 176.675 133.084C178.384 133.961 179.239 135.349 179.239 137.249C179.239 139.1 178.531 140.683 177.115 141.998C175.747 143.264 174.307 143.897 172.793 143.897C171.279 143.897 170.522 143.532 170.522 142.801C170.522 142.363 170.839 142.144 171.474 142.144L172.939 142.363C173.916 142.363 174.795 141.852 175.576 140.829C176.406 139.757 176.822 138.661 176.822 137.541C176.822 135.885 175.869 134.667 173.965 133.888C172.744 133.401 171.596 133.157 170.522 133.157C169.447 133.157 168.69 133.181 168.251 133.23C164.051 133.474 159.949 134.935 155.944 137.614C151.256 140.683 148.912 144.141 148.912 147.989C148.912 149.401 149.4 150.717 150.377 151.934C153.502 150.96 156.481 150.473 159.314 150.473ZM151.622 153.103C153.722 154.759 156.14 155.587 158.874 155.587C161.609 155.587 162.977 154.832 162.977 153.322C162.977 152.641 161.756 152.3 159.314 152.3C156.872 152.3 154.308 152.567 151.622 153.103Z" fill="black"/>
<path d="M195.714 181.086C193.394 181.086 191.478 180.782 189.964 180.173C188.45 179.54 187.253 178.919 186.374 178.31C185.52 177.677 184.921 177.36 184.58 177.36C184.36 177.36 184.116 177.555 183.847 177.945C183.578 178.31 183.298 178.748 183.005 179.26C182.712 179.747 182.419 180.185 182.126 180.575C181.857 180.965 181.588 181.159 181.32 181.159C181.124 181.159 180.941 181.086 180.77 180.94C180.624 180.818 180.526 180.624 180.477 180.356L177.584 166.656C177.559 166.462 177.572 166.291 177.62 166.145C177.669 165.974 177.779 165.865 177.95 165.816C178.145 165.719 178.316 165.719 178.463 165.816C178.634 165.914 178.768 166.072 178.866 166.291C180.453 169.676 182.126 172.355 183.884 174.328C185.666 176.276 187.51 177.677 189.414 178.529C191.319 179.357 193.248 179.771 195.201 179.771C197.985 179.771 200.195 179.004 201.831 177.47C203.467 175.911 204.297 173.756 204.321 171.004C204.321 169.348 203.955 167.801 203.223 166.364C202.49 164.927 201.208 163.576 199.377 162.309C197.57 161.018 195.018 159.788 191.722 158.619C188.01 157.28 185.044 155.819 182.821 154.236C180.624 152.653 179.024 150.899 178.023 148.975C177.047 147.027 176.558 144.835 176.558 142.4C176.558 139.574 177.242 137.102 178.609 134.984C180.001 132.865 181.894 131.221 184.287 130.052C186.679 128.859 189.402 128.262 192.454 128.262C194.701 128.262 196.532 128.542 197.948 129.102C199.389 129.638 200.524 130.186 201.355 130.746C202.185 131.282 202.807 131.55 203.223 131.55C203.564 131.55 203.931 131.27 204.321 130.709C204.712 130.149 205.103 129.589 205.493 129.029C205.884 128.469 206.238 128.189 206.556 128.189C206.751 128.189 206.91 128.25 207.032 128.371C207.178 128.493 207.288 128.712 207.361 129.029L211.097 143.021C211.171 143.24 211.171 143.435 211.097 143.605C211.049 143.776 210.939 143.897 210.768 143.97C210.597 144.043 210.426 144.043 210.255 143.97C210.108 143.873 209.974 143.727 209.852 143.532C208.143 140.001 206.385 137.224 204.578 135.203C202.771 133.157 200.903 131.72 198.974 130.892C197.045 130.04 195.03 129.614 192.93 129.614C190.122 129.614 187.815 130.466 186.008 132.171C184.225 133.851 183.334 136.189 183.334 139.185C183.334 140.914 183.688 142.521 184.396 144.007C185.129 145.468 186.374 146.856 188.132 148.172C189.915 149.462 192.393 150.704 195.568 151.898C199.45 153.335 202.502 154.845 204.724 156.428C206.946 158.011 208.521 159.728 209.449 161.579C210.377 163.405 210.841 165.439 210.841 167.679C210.841 170.163 210.243 172.428 209.046 174.474C207.874 176.496 206.153 178.103 203.882 179.296C201.635 180.49 198.913 181.086 195.714 181.086Z" fill="black"/>
<path d="M230.543 177.324C230.543 177.665 230.665 177.945 230.909 178.164C231.153 178.359 231.507 178.493 231.971 178.566L235.084 179.077C235.524 179.175 235.744 179.369 235.744 179.662C235.744 179.832 235.683 179.966 235.561 180.063C235.463 180.161 235.28 180.21 235.011 180.21H218.2C217.955 180.21 217.772 180.161 217.65 180.063C217.528 179.966 217.467 179.832 217.467 179.662C217.467 179.369 217.687 179.175 218.126 179.077L221.24 178.566C221.728 178.493 222.082 178.359 222.302 178.164C222.546 177.945 222.668 177.665 222.668 177.324V131.952C222.668 131.611 222.546 131.343 222.302 131.148C222.082 130.929 221.728 130.783 221.24 130.709L218.126 130.198C217.687 130.125 217.467 129.93 217.467 129.614C217.467 129.443 217.528 129.309 217.65 129.212C217.772 129.114 217.955 129.066 218.2 129.066H235.011C235.28 129.066 235.463 129.114 235.561 129.212C235.683 129.309 235.744 129.443 235.744 129.614C235.744 129.93 235.524 130.125 235.084 130.198L231.971 130.709C231.507 130.783 231.153 130.929 230.909 131.148C230.665 131.343 230.543 131.611 230.543 131.952V177.324Z" fill="black"/>
<path d="M284.493 179.954C284.493 180.417 284.432 180.733 284.31 180.904C284.212 181.074 284.041 181.159 283.797 181.159C283.48 181.159 283.077 180.977 282.588 180.611C282.1 180.246 281.575 179.82 281.013 179.333C280.452 178.846 279.902 178.42 279.365 178.054C278.828 177.689 278.364 177.506 277.973 177.506C277.68 177.506 277.229 177.689 276.618 178.054C276.032 178.42 275.263 178.846 274.311 179.333C273.358 179.796 272.186 180.21 270.794 180.575C269.427 180.94 267.803 181.123 265.923 181.123C262.236 181.123 258.891 180.49 255.887 179.223C252.908 177.932 250.332 176.13 248.159 173.817C246.01 171.479 244.35 168.739 243.178 165.597C242.03 162.431 241.456 158.973 241.456 155.222C241.456 151.204 242.079 147.538 243.324 144.226C244.57 140.914 246.316 138.064 248.562 135.678C250.808 133.291 253.458 131.452 256.51 130.161C259.562 128.846 262.895 128.189 266.509 128.189C268.902 128.189 270.88 128.481 272.443 129.066C274.005 129.626 275.214 130.186 276.069 130.746C276.948 131.306 277.534 131.586 277.827 131.586C278.242 131.586 278.694 131.318 279.182 130.783C279.67 130.247 280.146 129.711 280.61 129.175C281.099 128.639 281.514 128.371 281.856 128.371C282.002 128.371 282.124 128.432 282.222 128.554C282.32 128.652 282.405 128.846 282.478 129.139L285.555 143.094C285.604 143.288 285.592 143.471 285.518 143.642C285.445 143.788 285.323 143.897 285.152 143.97C284.981 143.995 284.81 143.97 284.639 143.897C284.493 143.824 284.359 143.678 284.236 143.459C282.942 140.171 281.404 137.504 279.621 135.459C277.863 133.413 275.898 131.915 273.725 130.965C271.576 129.991 269.268 129.504 266.802 129.504C263.481 129.504 260.515 130.442 257.902 132.317C255.314 134.168 253.275 136.883 251.785 140.463C250.296 144.019 249.551 148.379 249.551 153.542C249.551 158.9 250.357 163.49 251.968 167.314C253.58 171.138 255.777 174.072 258.561 176.118C261.345 178.139 264.458 179.15 267.901 179.15C268.951 179.15 270.025 179.041 271.124 178.821C272.223 178.578 273.236 178.225 274.164 177.762C275.092 177.299 275.837 176.727 276.398 176.045C276.984 175.363 277.277 174.584 277.277 173.707V161.359C277.277 160.97 277.155 160.677 276.911 160.483C276.691 160.288 276.288 160.142 275.702 160.044L271.38 159.569C271.136 159.521 270.953 159.448 270.831 159.35C270.709 159.253 270.648 159.131 270.648 158.985C270.648 158.814 270.709 158.68 270.831 158.583C270.953 158.486 271.148 158.437 271.417 158.437H288.156C288.424 158.437 288.62 158.486 288.742 158.583C288.864 158.68 288.925 158.814 288.925 158.985C288.925 159.107 288.876 159.216 288.778 159.314C288.681 159.387 288.51 159.46 288.265 159.533L285.848 160.008C285.384 160.129 285.042 160.288 284.823 160.483C284.603 160.653 284.493 160.945 284.493 161.359V179.954Z" fill="black"/>
<path d="M307.83 179.662C307.83 179.808 307.769 179.942 307.647 180.063C307.525 180.161 307.329 180.21 307.061 180.21H293.472C293.228 180.21 293.033 180.161 292.886 180.063C292.764 179.942 292.703 179.808 292.703 179.662C292.703 179.418 292.923 179.223 293.362 179.077L296.073 178.31C297.001 178.018 297.709 177.616 298.197 177.104C298.685 176.593 298.93 175.838 298.93 174.839V137.541C298.93 137.078 298.881 136.713 298.783 136.445C298.71 136.177 298.453 135.775 298.014 135.239L294.717 130.417C294.571 130.174 294.449 129.979 294.351 129.833C294.254 129.687 294.205 129.565 294.205 129.467C294.205 129.321 294.254 129.224 294.351 129.175C294.473 129.102 294.632 129.066 294.827 129.066H302.446C302.763 129.066 303.02 129.151 303.215 129.321C303.41 129.492 303.654 129.784 303.947 130.198L332.992 172.94L332.223 174.401V134.436C332.223 133.413 331.979 132.646 331.491 132.134C331.002 131.623 330.282 131.233 329.33 130.965L325.447 130.198C325.008 130.052 324.788 129.857 324.788 129.614C324.788 129.443 324.849 129.309 324.971 129.212C325.093 129.114 325.289 129.066 325.557 129.066H339.146C339.39 129.066 339.573 129.114 339.695 129.212C339.817 129.309 339.878 129.443 339.878 129.614C339.878 129.857 339.659 130.052 339.219 130.198L336.545 130.965C335.617 131.233 334.909 131.623 334.421 132.134C333.933 132.646 333.688 133.413 333.688 134.436V172.94C333.688 173.354 333.737 173.707 333.835 173.999C333.957 174.291 334.103 174.572 334.274 174.839L336.692 178.383C336.96 178.773 337.144 179.065 337.241 179.26C337.339 179.455 337.388 179.613 337.388 179.735C337.388 179.881 337.327 180.003 337.205 180.1C337.082 180.173 336.887 180.21 336.619 180.21H329C328.439 180.21 328.158 179.978 328.158 179.515C328.158 179.321 328.121 179.114 328.048 178.894C327.975 178.675 327.804 178.383 327.535 178.018L298.783 135.897L300.395 135.312V174.839C300.395 175.838 300.627 176.593 301.091 177.104C301.579 177.616 302.287 178.018 303.215 178.31L307.171 179.077C307.61 179.223 307.83 179.418 307.83 179.662Z" fill="black"/>
<path d="M355.933 153.578H367.727C369.461 153.578 370.706 153.201 371.463 152.446C372.245 151.666 372.721 150.242 372.892 148.172C372.94 147.952 373.014 147.794 373.111 147.697C373.209 147.575 373.319 147.514 373.441 147.514C373.807 147.465 374.051 147.684 374.174 148.172L377.47 159.496C377.543 159.74 377.543 159.935 377.47 160.081C377.421 160.203 377.311 160.288 377.14 160.336C376.994 160.385 376.847 160.385 376.701 160.336C376.579 160.288 376.444 160.178 376.298 160.008C375.443 158.644 374.662 157.597 373.954 156.866C373.27 156.111 372.513 155.6 371.683 155.332C370.877 155.039 369.888 154.893 368.716 154.893H355.933V153.578ZM344.945 129.614C344.945 129.443 345.006 129.309 345.129 129.212C345.251 129.114 345.434 129.066 345.678 129.066H374.979C375.565 129.066 376.078 128.968 376.518 128.773C376.982 128.554 377.372 128.347 377.69 128.152C378.007 127.957 378.288 127.86 378.532 127.86C378.728 127.86 378.886 127.933 379.008 128.079C379.13 128.201 379.252 128.481 379.375 128.919L382.378 140.354C382.451 140.597 382.451 140.792 382.378 140.938C382.305 141.06 382.183 141.157 382.012 141.231C381.841 141.279 381.67 141.267 381.499 141.194C381.352 141.121 381.218 140.963 381.096 140.719C379.924 138.6 378.862 136.871 377.91 135.532C376.982 134.168 376.078 133.108 375.199 132.353C374.344 131.598 373.465 131.087 372.562 130.819C371.659 130.527 370.67 130.381 369.595 130.381H358.021V176.849C358.021 177.531 358.229 178.042 358.644 178.383C359.059 178.724 359.682 178.894 360.512 178.894H370.181C371.646 178.894 372.965 178.578 374.137 177.945C375.309 177.311 376.53 176.069 377.8 174.218C379.069 172.343 380.559 169.567 382.268 165.889C382.366 165.67 382.476 165.524 382.598 165.451C382.744 165.353 382.915 165.317 383.111 165.341C383.306 165.366 383.44 165.463 383.513 165.634C383.587 165.804 383.587 166.023 383.513 166.291L380.07 180.246C379.973 180.66 379.851 180.952 379.704 181.123C379.582 181.293 379.411 181.379 379.191 181.379C378.923 181.379 378.618 181.281 378.276 181.086C377.934 180.891 377.507 180.697 376.994 180.502C376.481 180.307 375.834 180.21 375.053 180.21H345.678C345.434 180.21 345.251 180.161 345.129 180.063C345.006 179.942 344.945 179.808 344.945 179.662C344.945 179.369 345.165 179.175 345.605 179.077L348.718 178.566C349.206 178.493 349.573 178.359 349.817 178.164C350.061 177.969 350.183 177.689 350.183 177.324V131.952C350.183 131.586 350.061 131.306 349.817 131.111C349.573 130.916 349.206 130.783 348.718 130.709L345.605 130.198C345.165 130.101 344.945 129.906 344.945 129.614Z" fill="black"/>
<path d="M429.385 146.637C429.385 149.073 428.848 151.277 427.773 153.249C426.723 155.198 425.234 156.805 423.305 158.072C421.376 159.338 419.093 160.203 416.456 160.665C415.894 160.763 415.333 160.86 414.771 160.958C414.234 161.031 413.684 161.091 413.123 161.14C412.586 161.189 411.999 161.213 411.365 161.213C409.68 161.213 408.117 161.104 406.676 160.884C405.236 160.665 403.917 160.336 402.721 159.898C401.549 159.435 400.523 158.863 399.644 158.181L399.937 157.049C400.767 157.682 401.707 158.193 402.757 158.583C403.807 158.973 404.918 159.265 406.09 159.46C407.287 159.63 408.471 159.715 409.643 159.715C413.257 159.715 416.114 158.619 418.214 156.428C420.338 154.211 421.4 150.984 421.4 146.747C421.4 143.556 420.741 140.731 419.423 138.271C418.104 135.812 416.26 133.876 413.892 132.463C411.548 131.05 408.825 130.344 405.724 130.344H401.659V177.104C401.659 177.543 401.768 177.884 401.988 178.127C402.208 178.346 402.562 178.493 403.05 178.566L406.42 179.077C406.664 179.126 406.835 179.199 406.933 179.296C407.03 179.369 407.079 179.491 407.079 179.662C407.079 180.027 406.835 180.21 406.347 180.21H389.315C389.071 180.21 388.888 180.161 388.766 180.063C388.644 179.942 388.583 179.808 388.583 179.662C388.583 179.369 388.803 179.175 389.242 179.077L392.355 178.566C392.844 178.468 393.198 178.31 393.418 178.091C393.662 177.872 393.784 177.543 393.784 177.104V131.952C393.784 131.586 393.662 131.306 393.418 131.111C393.198 130.916 392.844 130.783 392.355 130.709L389.242 130.198C388.803 130.101 388.583 129.906 388.583 129.614C388.583 129.443 388.644 129.309 388.766 129.212C388.888 129.114 389.071 129.066 389.315 129.066H405.797C410.803 129.066 415.064 129.808 418.58 131.294C422.096 132.755 424.77 134.801 426.601 137.431C428.457 140.062 429.385 143.13 429.385 146.637ZM410.998 160.483L418.507 159.606L429.055 176.483C429.617 177.384 430.215 177.993 430.85 178.31C431.509 178.627 432.266 178.87 433.121 179.041C433.463 179.114 433.695 179.199 433.817 179.296C433.939 179.369 434 179.491 434 179.662C434 179.808 433.939 179.942 433.817 180.063C433.695 180.161 433.499 180.21 433.231 180.21H418.69C418.177 180.21 417.921 180.027 417.921 179.662C417.921 179.54 417.97 179.442 418.067 179.369C418.165 179.296 418.312 179.223 418.507 179.15L420.265 178.894C420.827 178.748 421.144 178.493 421.217 178.127C421.315 177.738 421.156 177.214 420.741 176.556L410.998 160.483Z" fill="black"/>
</svg>
