<svg width="27" height="27" viewBox="0 0 27 27" fill="none" xmlns="http://www.w3.org/2000/svg">
<g id="Layer_1" clip-path="url(#clip0_124_12)">
<path id="Vector" d="M16.8582 2.49486C10.791 0.64959 4.35466 4.07441 2.49463 10.1417C0.634599 16.2089 4.05942 22.6452 10.1267 24.5052C16.1939 26.3653 22.6302 22.9405 24.4903 16.8732C26.3503 10.806 22.9255 4.36966 16.8582 2.50962M9.55095 26.4096C2.43558 24.2395 -1.57973 16.6665 0.590313 9.55118C2.76035 2.43581 10.3333 -1.5795 17.4487 0.590542C24.5641 2.76058 28.5794 10.3188 26.4093 17.4489C24.2245 24.5643 16.6663 28.5944 9.55095 26.4096Z" fill="#FCEEE5"/>
<path id="Vector_2" d="M12.5182 10.4959C12.1048 11.8688 10.6581 12.6364 9.28524 12.2083C7.92712 11.795 7.15949 10.3483 7.57283 8.97539C7.98617 7.60251 9.43286 6.83488 10.8057 7.26298C12.1639 7.67632 12.9463 9.12301 12.5182 10.4959Z" fill="#FCEEE5"/>
<path id="Vector_3" d="M20.933 13.0645C20.5196 14.4374 19.0729 15.205 17.7 14.7769C16.3272 14.3488 15.5743 12.9169 15.9876 11.544C16.401 10.1711 17.8477 9.4035 19.2205 9.8316C20.5787 10.2449 21.3611 11.6916 20.933 13.0645Z" fill="#FCEEE5"/>
<path id="Vector_4" d="M10.9091 21.9513C7.73525 20.977 5.52093 18.0836 5.40283 14.7326L7.39572 14.6588C7.4843 17.1536 9.1229 19.3089 11.4996 20.0323C13.8616 20.7556 16.4302 19.8846 17.9064 17.8622L19.5155 19.0432C17.5521 21.7447 14.083 22.9109 10.9091 21.9366" fill="#FCEEE5"/>
</g>
<defs>
<clipPath id="clip0_124_12">
<rect width="27" height="27" fill="white"/>
</clipPath>
</defs>
</svg>
